<?xml version="1.0" encoding="UTF-8"?>
<svg version="1.1" xmlns="http://www.w3.org/2000/svg" width="1069" height="233">
<path d="M0 0 C2.06352496 1.28132236 4.07922102 2.61412821 6.08984375 3.9765625 C8.23611064 5.12650509 9.83510432 5.37571249 12.25 5.5625 C16 6 16 6 18.375 7.5 C20.0367991 10.056614 20.33193391 11.432152 20.8125 14.375 C21.67491831 18.94430402 23.34280394 21.26815745 27.078125 24.015625 C29.15518433 25.22369987 29.15518433 25.22369987 32.4375 25.375 C36.0192599 23.99256635 37.00436657 23.15951918 39.5 20.4375 C50.0701229 9.05115139 70.7057328 1.27299025 85.953125 0.69921875 C87.71864844 0.67988277 89.48440533 0.67643798 91.25 0.6875 C92.17659424 0.69241455 93.10318848 0.6973291 94.05786133 0.70239258 C103.12116229 0.85705642 110.80453797 2.10904547 118.75 6.625 C125.37927178 10.15417543 132.63890684 10.43529168 140 10 C142.28956429 9.20105673 144.04200258 8.23327762 146.08203125 6.9453125 C150.15850884 4.9361321 154.61498899 5.26066675 159 6 C164.09419644 8.04438147 167.77795948 10.86153131 170 16 C170 16.66 170 17.32 170 18 C192.27618907 16.71468453 214.68969519 15.03446955 236 8 C236.87785156 7.75507812 237.75570313 7.51015625 238.66015625 7.2578125 C242.62209628 6.11110465 244.64345159 5.35654841 247.625 2.375 C250 0 250 0 253.25 -1 C262.35817424 -1 268.2784164 3.20005198 275 9 C275.46148438 8.62488281 275.92296875 8.24976563 276.3984375 7.86328125 C283.76581389 2.08294839 291.05013608 -3.02087643 300.765625 -2.40234375 C308.13838343 -1.07473165 314.32268398 6.50349304 319 12 C319.79296875 14.3125 319.79296875 14.3125 320 16 C322.12671674 15.1082499 324.25127342 14.21134803 326.375 13.3125 C327.01767822 13.04066895 327.66035645 12.76883789 328.32250977 12.48876953 C331.95900408 10.93280231 335.45888985 9.26439739 338.9375 7.375 C355.01133692 -0.68801235 372.77894552 -1.26235327 389.7890625 3.8515625 C392.47048124 4.81061008 394.9524864 5.86544867 397.5 7.125 C402.5737931 9.60894425 407.90831927 9.81601797 413.4609375 10.43359375 C418.02787879 11.16450599 421.03475287 12.68070451 425 15 C426.92394192 15.91074237 426.92394192 15.91074237 429 16 C431.0074177 14.78287231 431.0074177 14.78287231 432.9375 12.9375 C443.34155259 4.40651743 457.647225 -0.83821134 471.20703125 -0.3515625 C491.99293363 2.26484479 505.64766725 12.10945478 520 27 C520.86625 27.80824219 520.86625 27.80824219 521.75 28.6328125 C523 30 523 30 523 32 C524.05960938 32.20496094 525.11921875 32.40992188 526.2109375 32.62109375 C527.59898822 32.89307666 528.98700744 33.16522044 530.375 33.4375 C531.07367187 33.57220703 531.77234375 33.70691406 532.4921875 33.84570312 C537.7734375 34.88671875 537.7734375 34.88671875 540 36 C540.226875 35.195625 540.45375 34.39125 540.6875 33.5625 C546.03626744 19.04441694 556.60388678 12.12400476 570.10546875 5.62890625 C585.30742648 -1.05191921 605.07259725 0.01122166 620.47265625 5.58984375 C621.63667969 6.05519531 622.80070313 6.52054688 624 7 C624.94746094 7.37253906 625.89492188 7.74507812 626.87109375 8.12890625 C631.90448751 10.38254745 635.48825654 13.29103354 639.5625 17 C643.0478278 20.17333959 643.0478278 20.17333959 647.44921875 20.98046875 C649.78270456 20.17622831 651.80779566 19.13011914 654 18 C655.12792969 17.7215625 656.25585938 17.443125 657.41796875 17.15625 C661.47230089 15.84754519 663.45910548 14.19516944 666.5625 11.3125 C679.68855486 -0.27326321 695.40191856 -5.2793034 712.8125 -4.20263672 C731.45867747 -2.47536805 745.19653048 6.94649639 758 20 C759.28777344 21.30710937 759.28777344 21.30710937 760.6015625 22.640625 C767.01756018 29.46432822 771.86126709 36.47731235 774.875 45.375 C776.28385995 49.18369766 777.45558916 50.71809186 781.125 52.5 C782.14980469 52.88671875 782.14980469 52.88671875 783.1953125 53.28125 C785 54 785 54 787 56 C787.875 58.75 787.875 58.75 788 62 C784.98701299 67.50649351 784.98701299 67.50649351 782 69 C782 75.6 782 82.2 782 89 C784.31 89 786.62 89 789 89 C794.67549553 91.04317839 798.29873721 94.59747441 801 100 C801.56735892 104.65048294 801.4598631 108.09730577 799.3125 112.3125 C794.90179233 117.43845756 790.81599362 120.39976573 784 121 C781.03512969 120.28623492 778.70639607 119.35319804 776 118 C776.33 118.66 776.66 119.32 777 120 C777.07181821 122.71760108 777.09299506 125.40859388 777.0625 128.125 C777.05798828 128.87910156 777.05347656 129.63320312 777.04882812 130.41015625 C777.03703499 132.27347127 777.01909942 134.13674555 777 136 C776.01 136 775.02 136 774 136 C774 136.66 774 137.32 774 138 C773.01 137.67 772.02 137.34 771 137 C771.33 135.68 771.66 134.36 772 133 C771.01 133 770.02 133 769 133 C768.67 134.65 768.34 136.3 768 138 C775.15852344 142.50573729 782.11467001 146.10943268 790.09790039 148.86962891 C792.91086113 149.89488934 794.70357694 150.59261228 796.4921875 153.05078125 C797 155 797 155 796 157 C794.66658348 156.85492922 793.33327236 156.7088897 792 156.5625 C791.175 156.47226563 790.35 156.38203125 789.5 156.2890625 C787.32694548 156.03780307 785.16582494 155.74316078 783 155.4375 C775.5742938 154.51112477 768.39783062 155.06059294 761 156 C760.375 154.1875 760.375 154.1875 760 152 C760.66 151.01 761.32 150.02 762 149 C761.01 149 760.02 149 759 149 C758.65775391 150.07314453 758.65775391 150.07314453 758.30859375 151.16796875 C751.70343247 165.46272077 733.06948187 174.89157886 719.2109375 180.03515625 C703.06135058 184.92552412 685.98260052 182.80551667 671.1875 175.125 C666.51029293 172.43663465 662.19371929 169.38862132 658 166 C657.55269531 166.68707031 657.10539063 167.37414062 656.64453125 168.08203125 C656.03996094 168.98308594 655.43539062 169.88414062 654.8125 170.8125 C654.22082031 171.70582031 653.62914062 172.59914062 653.01953125 173.51953125 C650.22078923 176.95705772 647.77133129 178.73351653 643.3515625 179.3984375 C634.22493537 179.31998512 628.69549992 177.07948933 622.03515625 170.85546875 C620.06734714 168.99128747 620.06734714 168.99128747 617.99609375 167.55078125 C610.70484817 162.11445137 607.6465873 154.07874261 604 146 C600.20827213 146.53885907 598.01216502 147.45012201 595.0625 149.875 C591.85508211 152.40590037 588.69744549 154.23531011 585 156 C584.34 156.556875 583.68 157.11375 583 157.6875 C580.1313056 159.5700807 578.35635682 159.5593928 575 159 C571.52966825 155.42390576 570.11975301 152.07730384 568.8125 147.3125 C568.47089844 146.075 568.12929688 144.8375 567.77734375 143.5625 C567.10786514 140.49433674 566.87999057 137.9266157 566.875 134.8125 C566.48457319 128.94657528 562.70477548 126.0815989 558.72265625 122.09375 C553.88151081 116.94906835 551.044816 110.30225882 548 104 C547.65388672 105.7015625 547.65388672 105.7015625 547.30078125 107.4375 C543.4824222 125.38915989 543.4824222 125.38915989 536.75 130.8125 C534 132 534 132 531.96484375 132.34375 C527.60398212 133.24135445 525.57783762 134.16022431 522.9921875 137.91796875 C521.98695012 139.72358832 521.03549982 141.55205349 520.08398438 143.38647461 C511.59422113 159.57060499 495.81808139 169.85923621 479.0390625 176.1015625 C463.71811491 180.59290878 448.69951936 178.41561606 434.5 171.5 C429.14723508 168.45473198 424.84874018 164.45407419 420.50195312 160.13867188 C417.51457387 157.20376855 415.03480709 155.22086414 411 154 C410.773125 154.556875 410.54625 155.11375 410.3125 155.6875 C405.48473502 164.1935621 395.02972955 169.90068689 386 173 C369.69483145 177.38793527 351.81848128 175.18569747 337 167 C336.05769531 166.40316406 335.11539063 165.80632812 334.14453125 165.19140625 C328.19967014 161.44667118 324.18086855 159.16565157 317.05859375 159.94921875 C315 160 315 160 312 158 C311.814375 158.804375 311.62875 159.60875 311.4375 160.4375 C308.55833664 167.57281789 303.75882552 173.3133679 297 177 C290.34616003 179.21794666 285.29231141 178.46867491 279.0625 175.5625 C272.8521516 172.20875404 267.99163795 167.94113234 263 163 C262.26652344 162.31550781 261.53304688 161.63101563 260.77734375 160.92578125 C251.82957208 152.41285456 247.3999163 143.64166962 246.8203125 131.1171875 C246.81348706 127.738593 246.86517368 124.37565165 247 121 C239.02401485 127.13537319 236.75546014 132.69172347 234.8125 142.125 C232.54278071 152.94981505 227.70182146 161.92967282 218.5625 168.4375 C212.30377333 172.26699208 205.33811318 174.08338285 198 173 C186.68555853 169.03994549 178.01079142 159.01798569 172 149 C171.46890625 148.38640625 170.9378125 147.7728125 170.390625 147.140625 C168.54981002 144.30701093 168.55273614 142.03899111 168.3125 138.6875 C167.65623393 133.83659994 166.8947671 131.03504272 163.3125 127.625 C160.29047405 125.41575721 159.29177945 125.00511894 155.4375 124.9375 C154.303125 125.288125 153.16875 125.63875 152 126 C150.22496094 126.31324219 150.22496094 126.31324219 148.4140625 126.6328125 C144.72348496 127.6470364 144.72348496 127.6470364 143.65234375 131.08984375 C143.41644531 132.35957031 143.18054688 133.62929687 142.9375 134.9375 C140.33946105 146.82825126 134.57358673 158.00730208 124.33740234 165.16210938 C110.23368222 174.08103334 94.63042913 177.359886 78.13305664 173.97045898 C63.26692261 170.48753616 51.14108876 163.29706689 40 153 C39.57589844 153.59167969 39.15179688 154.18335938 38.71484375 154.79296875 C33.19824718 162.22521863 28.34249219 167.1648676 19 169 C12.751303 169.57858306 6.11073675 168.43203055 1.06640625 164.48828125 C-1.38077218 162.72575765 -3.44865267 162.18855231 -6.375 161.5 C-10.62836855 160.42384651 -14.19281907 159.16083242 -18 157 C-18.38478516 157.90685547 -18.38478516 157.90685547 -18.77734375 158.83203125 C-20.87747494 162.55590604 -24.18806578 164.24768719 -28 166 C-33.95137188 167.61463307 -39.2563348 167.0718632 -45 165 C-45.61230469 164.78859375 -46.22460938 164.5771875 -46.85546875 164.359375 C-53.50487139 161.56251286 -58.42276652 156.27664052 -63.53295898 151.34130859 C-65.19356518 149.77976059 -65.19356518 149.77976059 -67.98046875 147.76171875 C-72.10146064 144.3795848 -74.5053628 139.78481752 -77.1875 135.25 C-78.21477183 133.52133191 -79.24958207 131.79711454 -80.29296875 130.078125 C-80.7418042 129.31918945 -81.19063965 128.56025391 -81.65307617 127.77832031 C-82.96549157 125.6974381 -82.96549157 125.6974381 -86 125 C-89.1886003 126.21021875 -91.0967859 128.21380435 -93 131 C-93.64091225 133.54362049 -94.12725352 135.91949444 -94.5 138.5 C-96.04042045 149.12791683 -99.94108423 159.33089945 -108.171875 166.671875 C-115.52306377 172.01248223 -122.97129728 173.94248183 -132 173 C-138.72531484 171.04829126 -144.29848429 166.02800986 -149 161 C-149 160.34 -149 159.68 -149 159 C-149.66 159 -150.32 159 -151 159 C-154.5512316 155.89267235 -156.38531942 153.38270443 -158 149 C-158.48855469 148.55785156 -158.97710937 148.11570313 -159.48046875 147.66015625 C-161.43352857 145.52635053 -161.68967657 143.89200924 -162.1875 141.0625 C-162.34605469 140.20785156 -162.50460938 139.35320312 -162.66796875 138.47265625 C-163 136 -163 136 -163 132 C-163.556875 131.7525 -164.11375 131.505 -164.6875 131.25 C-167 130 -167 130 -169.4375 127.8125 C-171.83630129 125.70944476 -171.83630129 125.70944476 -174.625 126.1875 C-175.800625 126.5896875 -175.800625 126.5896875 -177 127 C-182.72844829 128.90948276 -188.77562505 128.91185715 -194.3125 126.375 C-199.96550555 123.13819844 -203.80558236 118.12127025 -206 112 C-206.87271035 102.63199986 -206.87271035 102.63199986 -204.91796875 98.9765625 C-203.65742349 96.26236717 -204.12959881 94.82220992 -205 92 C-206.06664843 89.90174438 -206.06664843 89.90174438 -207.375 87.875 C-209.42637824 84.37007375 -210.57342942 81.20123775 -211.5 77.25 C-212.69839901 72.32554431 -214.10724582 70.17566789 -218 67 C-219.59112769 63.81774461 -219.33732786 61.54194252 -219 58 C-218.23751946 56.63744452 -217.41889629 55.30557245 -216.5625 54 C-213.342276 48.71738534 -213.39960768 43.6711589 -213.15625 37.60546875 C-212.68099548 26.63897059 -212.68099548 26.63897059 -208.5 22.5625 C-205.35903134 21.16028185 -203.27182093 20.70219554 -199.9375 20.25 C-196.23246823 19.66088691 -196.23246823 19.66088691 -193.4921875 17.27734375 C-192.70258953 15.87855264 -191.93823081 14.46522613 -191.19921875 13.0390625 C-188.52835956 8.49773189 -184.51751809 6.41386857 -179.5625 5.0625 C-172.35015318 4.9359676 -167.84726719 6.56824171 -162.4453125 11.3671875 C-160.88365324 13.1314404 -159.95618712 14.8555415 -159 17 C-148.58195557 17.59062929 -138.57380914 16.60839442 -128.25 15.1875 C-127.03159424 15.02217773 -125.81318848 14.85685547 -124.55786133 14.68652344 C-117.8244251 13.71789367 -111.27938899 12.45475038 -104.70385742 10.70751953 C-101.83746913 9.95747048 -98.95756483 9.31674169 -96.0625 8.6875 C-90.23468767 7.26701873 -85.13235004 4.84753311 -79.8125 2.109375 C-77 1 -77 1 -74.91796875 1.05859375 C-72.2178075 2.38392748 -70.42497526 4.17907457 -68.3125 6.3125 C-67.52488281 7.09238281 -66.73726562 7.87226562 -65.92578125 8.67578125 C-64.070414 10.91501759 -63.38274353 12.16510303 -63 15 C-62.29037109 14.45472656 -62.29037109 14.45472656 -61.56640625 13.8984375 C-43.81292624 0.40163983 -21.98340511 -11.39339268 0 0 Z M765 141 C765 141.66 765 142.32 765 143 C765.66 143 766.32 143 767 143 C767 142.34 767 141.68 767 141 C766.34 141 765.68 141 765 141 Z " fill="#050505" transform="translate(265,28)"/>
<path d="M0 0 C0.98516602 0.00491455 1.97033203 0.0098291 2.98535156 0.01489258 C9.81619834 0.12519525 15.95715061 0.63032712 22.3125 3.3125 C23.57707031 3.84037109 23.57707031 3.84037109 24.8671875 4.37890625 C38.34451871 10.58503293 47.75225747 20.57543023 53.3125 34.3125 C63.05822503 61.85780604 62.66909439 90.72416617 50.3125 117.3125 C49.98233887 118.03985352 49.65217773 118.76720703 49.31201172 119.51660156 C45.91570754 126.83424246 41.53724738 133.19679569 36.3125 139.3125 C35.66925781 140.11171875 35.02601563 140.9109375 34.36328125 141.734375 C30.10234767 146.80653992 25.54325041 150.90053221 20.1875 154.75 C19.61378662 155.16306396 19.04007324 155.57612793 18.44897461 156.00170898 C6.29020512 164.42119162 -10.10537527 168.55306984 -24.72753906 165.94921875 C-36.37626038 163.48558114 -50.21027348 158.08760589 -57.6875 148.3125 C-57.89453125 145.66015625 -57.89453125 145.66015625 -57.5 142.375 C-57.36737251 140.99396278 -57.2402355 139.61239243 -57.1171875 138.23046875 C-57.00842285 137.05750244 -57.00842285 137.05750244 -56.89746094 135.86083984 C-55.28256844 116.26055163 -55.58278008 96.4613865 -55.5625 76.8125 C-55.5599118 75.65039001 -55.55732361 74.48828003 -55.55465698 73.29095459 C-55.42402364 56.96117743 -55.42402364 56.96117743 -56.69287109 40.69921875 C-56.68199189 35.86489456 -53.71943452 32.80868158 -50.6875 29.3125 C-49.83926906 28.24992568 -48.99444698 27.18462464 -48.15234375 26.1171875 C-35.94511122 10.87833581 -20.08665041 -0.11686163 0 0 Z " fill="#FCFCFC" transform="translate(971.6875,29.6875)"/>
<path d="M0 0 C12.20937457 8.84654214 19.11072719 23.51459173 22 38 C26.74364814 69.03237851 20.83796062 96.74387805 2.63671875 122.16601562 C-1.84694819 128.13861958 -6.82919178 132.77036954 -13 137 C-14.32451172 137.96486328 -14.32451172 137.96486328 -15.67578125 138.94921875 C-28.58912546 147.86335072 -42.63578072 149.76118906 -58 148 C-65.65356282 146.44153393 -71.90662468 142.72547474 -78 138 C-79.010625 137.54625 -80.02125 137.0925 -81.0625 136.625 C-85.03084314 134.42974635 -87.32886346 131.60837743 -90 128 C-90.680625 127.113125 -91.36125 126.22625 -92.0625 125.3125 C-93.33503483 120.81621027 -92.05462011 117.90672802 -90.7890625 113.48828125 C-88.81390062 104.75650124 -88.52107504 94.80089629 -92.8515625 86.76953125 C-95.74076341 82.16555959 -95.74076341 82.16555959 -100 79 C-100.28571429 71.57142857 -100.28571429 71.57142857 -98 68 C-97.34 68 -96.68 68 -96 68 C-96 67.34 -96 66.68 -96 66 C-95.58878906 65.61714844 -95.17757812 65.23429687 -94.75390625 64.83984375 C-86.75560478 56.44964333 -83.11718582 43.23496749 -82.95703125 31.98046875 C-82.72011975 23.19218038 -79.76584388 18.51223143 -74 12 C-73.20335937 11.05898438 -72.40671875 10.11796875 -71.5859375 9.1484375 C-52.77983769 -11.47577468 -23.79155012 -14.64095392 0 0 Z " fill="#FCFCFC" transform="translate(765,43)"/>
<path d="M0 0 C0.71285156 0.48082031 1.42570312 0.96164063 2.16015625 1.45703125 C2.16015625 2.11703125 2.16015625 2.77703125 2.16015625 3.45703125 C2.75957031 3.72257812 3.35898437 3.988125 3.9765625 4.26171875 C14.83908894 10.20793179 19.70727275 25.40095212 23.16015625 36.45703125 C31.91585308 66.93372341 34.36428762 105.54620287 21.50390625 135.046875 C18.55487509 140.336271 14.98500973 144.43286775 9.16015625 146.45703125 C2.42361858 147.55770609 -3.028404 146.75514389 -8.78125 143.04296875 C-17.68660781 136.18229462 -22.90212079 125.59027249 -24.50390625 114.4921875 C-24.61476562 113.49058594 -24.725625 112.48898438 -24.83984375 111.45703125 C-25.82984375 111.45703125 -26.81984375 111.45703125 -27.83984375 111.45703125 C-27.9378125 112.3284375 -28.03578125 113.19984375 -28.13671875 114.09765625 C-30.94327793 136.45335177 -30.94327793 136.45335177 -39.83984375 143.45703125 C-47.67663429 146.06929476 -53.68035227 143.83171791 -60.83984375 140.45703125 C-61.49339844 140.16828125 -62.14695313 139.87953125 -62.8203125 139.58203125 C-72.83193101 134.63147376 -77.91999034 122.15993857 -81.68920898 112.21630859 C-84.32816285 103.99972762 -84.46598061 95.75625905 -84.50561523 87.20361328 C-84.52744119 84.69583566 -84.60799192 82.19396085 -84.68945312 79.6875 C-84.88259371 68.0020582 -84.88259371 68.0020582 -82.10693359 63.8894043 C-80.10256756 62.16218913 -78.07518114 60.85777701 -75.83984375 59.45703125 C-68.44896261 50.57040406 -66.61274332 40.53872787 -67.08984375 29.33203125 C-67.32554743 22.94315857 -67.31345276 18.67972673 -63.15234375 13.45703125 C-61.078125 11.33203125 -61.078125 11.33203125 -58.83984375 9.45703125 C-58.06253906 8.79703125 -57.28523438 8.13703125 -56.484375 7.45703125 C-38.45464956 -6.17844796 -20.62790089 -11.20773157 0 0 Z " fill="#FCFCFC" transform="translate(267.83984375,35.54296875)"/>
<path d="M0 0 C8.09705573 8.55077006 10.76046108 18.52784908 10.59130859 30.04370117 C10.01433182 42.07760653 6.9555243 54.47520232 -2 63 C-7.19300882 67.66902956 -12.6037608 71.22572758 -19 74 C-19.60070312 74.2990625 -20.20140625 74.598125 -20.8203125 74.90625 C-27.68047937 78.00624172 -35.48354778 78.14365099 -42.73046875 76.30859375 C-46.46202951 74.85371117 -48.56982 73.54750182 -51.0625 70.375 C-53.95103036 59.97629071 -50.8009836 50.67523097 -47 41 C-50.08604374 41.66347638 -50.08604374 41.66347638 -51.1328125 43.92578125 C-51.46023438 44.71339844 -51.78765625 45.50101563 -52.125 46.3125 C-52.45757813 47.09238281 -52.79015625 47.87226562 -53.1328125 48.67578125 C-55.80316711 55.83281274 -56.57231017 64.37299568 -53.4375 71.5 C-51.4998789 75.4269121 -48.0098723 77.53234612 -44 79 C-40.27439194 79.50935072 -36.62860256 79.46996465 -32.875 79.375 C-31.89917969 79.37371094 -30.92335938 79.37242188 -29.91796875 79.37109375 C-25.02507733 79.31101732 -21.54358165 78.87741207 -17 77 C-11.45347247 77.12325617 -7.23690931 79.60173665 -3 83 C2.79478477 89.26187069 4.43214193 95.78653821 4.25 104.19921875 C3.27963522 115.07033667 -3.07998823 125.67847779 -11 133 C-11.66 133 -12.32 133 -13 133 C-13 133.66 -13 134.32 -13 135 C-28.25595189 143.11625321 -43.24732133 147.33234167 -60.5625 142.5625 C-75.45712881 137.17026729 -87.1059764 130.3410354 -96 117 C-95.98095703 114.90625 -95.98095703 114.90625 -95.6328125 112.5 C-94.95338919 106.97642875 -94.85163781 101.56020025 -94.875 96 C-94.87113281 95.07960938 -94.86726562 94.15921875 -94.86328125 93.2109375 C-94.86648096 81.10392116 -94.86648096 81.10392116 -97.75 69.4375 C-98.09933594 68.52226563 -98.44867187 67.60703125 -98.80859375 66.6640625 C-99.97135529 64.06405146 -101.31883579 61.73398348 -102.8125 59.3125 C-104.97828726 55.57401798 -105.50688791 53.14241822 -104.5625 48.91796875 C-104.376875 48.28503906 -104.19125 47.65210938 -104 47 C-103.505 45.1128125 -103.505 45.1128125 -103 43.1875 C-100.48486429 39.17900246 -98.51327906 38.69536713 -94.05859375 37.60546875 C-91.80063416 37.11986891 -91.80063416 37.11986891 -90 35 C-89.71853191 32.99435554 -89.71853191 32.99435554 -89.8125 30.75 C-89.81894531 30.00234375 -89.82539062 29.2546875 -89.83203125 28.484375 C-89.92260805 25.89463184 -89.92260805 25.89463184 -90.81640625 23.07421875 C-91 20 -91 20 -89.0078125 17.03515625 C-88.06711723 16.02503389 -87.10474177 15.03479669 -86.125 14.0625 C-85.61831787 13.53962402 -85.11163574 13.01674805 -84.58959961 12.47802734 C-62.56049657 -9.8520859 -27.20822079 -18.31664537 0 0 Z " fill="#FCFCFC" transform="translate(668,44)"/>
<path d="M0 0 C6.66935363 4.82820002 8.95860144 12.72261896 11.0234375 20.46484375 C12.72616173 32.41094071 9.93268987 45.95496237 4.0234375 56.46484375 C3.66121094 57.12742187 3.29898438 57.79 2.92578125 58.47265625 C-2.78460277 67.37875976 -14.34240001 73.7108169 -24.2578125 76.875 C-31.89280977 78.53144337 -39.18389526 78.37297448 -46.1953125 74.71484375 C-49.14852654 72.64241285 -50.01409031 70.92974362 -50.9765625 67.46484375 C-51.87077114 58.71650251 -49.91766589 50.65791747 -46.9765625 42.46484375 C-47.9665625 42.13484375 -48.9565625 41.80484375 -49.9765625 41.46484375 C-50.4596215 42.85933484 -50.93781767 44.25551082 -51.4140625 45.65234375 C-51.68089844 46.42964844 -51.94773437 47.20695312 -52.22265625 48.0078125 C-54.58109321 55.69411741 -55.29002903 64.30553306 -52.8515625 72.02734375 C-49.89550521 75.87021823 -46.54330849 77.94259509 -41.9765625 79.46484375 C-38.89727474 79.69148603 -35.81335026 79.65000173 -32.7265625 79.65234375 C-31.89253906 79.66458984 -31.05851562 79.67683594 -30.19921875 79.68945312 C-25.03316375 79.70161809 -20.88716596 79.0372352 -15.9765625 77.46484375 C-9.82933651 77.59563579 -4.9688979 80.95420137 -0.375 84.80859375 C3.78783353 89.73887704 5.81918913 97.57129015 5.46484375 103.9609375 C3.20551009 116.77715766 -2.85264793 127.72703809 -13.0390625 135.83984375 C-26.23076146 144.64639003 -39.85685709 145.98162999 -55.22265625 144.05859375 C-69.59920498 141.09355249 -81.95900363 133.17656356 -91.78125 122.50390625 C-93.36618455 119.80019436 -93.00864554 118.60567584 -92.2890625 115.58984375 C-92.08152344 114.605 -91.87398438 113.62015625 -91.66015625 112.60546875 C-91.32177734 111.05085938 -91.32177734 111.05085938 -90.9765625 109.46484375 C-86.2183635 85.64233748 -87.63961287 58.11920506 -93.48828125 34.5859375 C-94.23149329 29.83532613 -93.9413592 26.07447907 -91.4453125 21.91015625 C-89.31626652 19.40092349 -87.17851647 16.91062567 -84.9765625 14.46484375 C-84.29207031 13.68625 -83.60757812 12.90765625 -82.90234375 12.10546875 C-61.9117282 -10.3983335 -26.31950408 -16.48248013 0 0 Z " fill="#FCFCFC" transform="translate(389.9765625,43.53515625)"/>
<path d="M0 0 C1.06347656 0.2784375 2.12695312 0.556875 3.22265625 0.84375 C13.30268129 3.80021752 20.33710831 8.81285983 25.85546875 17.8125 C27.42773339 20.81751092 28.28998097 23.68657785 29 27 C29.34071533 28.23016846 29.68143066 29.46033691 30.0324707 30.7277832 C31.56821759 37.68176537 31.26696681 44.77407993 31.23046875 51.85546875 C31.22927248 53.40415915 31.22882473 54.95285029 31.2290802 56.50154114 C31.22752141 59.74513311 31.2192898 62.9886138 31.20581055 66.23217773 C31.18900454 70.32106937 31.18508761 74.40983832 31.18561649 78.49876022 C31.18520956 92.60529601 31.18412617 106.7128969 30.5703125 120.80859375 C30.53443527 121.65060837 30.49855804 122.49262299 30.46159363 123.3601532 C29.94950607 133.29472908 28.57365618 143.55989207 23 152 C19.54310111 154.65296892 16.87440624 155.22673252 12.625 155 C6.82671459 154.06290337 2.23271314 151.79682949 -1.46875 147.16015625 C-8.17844078 136.17508324 -9.64764022 123.5792443 -10 111 C-5.05 110.505 -5.05 110.505 0 110 C0 109.34 0 108.68 0 108 C-0.66306152 107.96036133 -1.32612305 107.92072266 -2.00927734 107.87988281 C-39.85101083 105.51354881 -39.85101083 105.51354881 -56 95 C-56.84175781 94.4534375 -57.68351563 93.906875 -58.55078125 93.34375 C-67.29641053 87.11157048 -73.02312517 78.27213844 -76 68 C-76.53605399 63.89893011 -76.57267843 59.88129478 -76.5 55.75 C-76.48791504 54.64897949 -76.47583008 53.54795898 -76.46337891 52.41357422 C-76.03152374 34.66040086 -69.78998883 20.44053558 -57 8 C-40.97363493 -5.1772335 -18.98883516 -5.18893964 0 0 Z " fill="#FCFCFC" transform="translate(881,38)"/>
<path d="M0 0 C0.87548828 1.70239258 0.87548828 1.70239258 1.5703125 3.89453125 C1.95509766 5.08079102 1.95509766 5.08079102 2.34765625 6.29101562 C2.73244141 7.53915039 2.73244141 7.53915039 3.125 8.8125 C3.38925781 9.63298828 3.65351563 10.45347656 3.92578125 11.29882812 C8.44941753 25.45528378 8.55413382 38.44522203 2 52 C-5.3656182 62.48498201 -18.10966729 67.56562312 -30 71 C-32.32662004 71.3773523 -34.659264 71.7233946 -37 72 C-36.87625 73.27875 -36.7525 74.5575 -36.625 75.875 C-36.52058594 76.95394531 -36.52058594 76.95394531 -36.4140625 78.0546875 C-36.06604481 80.85589582 -36.06604481 80.85589582 -35.5300293 82.99584961 C-33.85746908 90.20843579 -33.59425052 97.33653383 -33.57446289 104.7121582 C-33.56257383 106.79953805 -33.51324797 108.88394391 -33.46289062 110.97070312 C-33.3314542 121.88500992 -35.39840859 131.66277274 -42.1875 140.5 C-47.85474243 146.2649535 -54.10400228 149.23280325 -62.1875 149.6875 C-67.04930459 149.43227082 -70.07088275 148.62469397 -73.47265625 145.08984375 C-82.98103522 132.0796577 -83.47619692 118.47289857 -83 103 C-82.98066406 102.31760254 -82.96132812 101.63520508 -82.94140625 100.93212891 C-82.66150011 92.4752587 -81.5017725 86.33924167 -79 78 C-94.51 78.33 -110.02 78.66 -126 79 C-131.02824057 67.68645871 -133.19767895 58.25306678 -133.1875 46.0625 C-133.18814453 45.24998779 -133.18878906 44.43747559 -133.18945312 43.6003418 C-133.11887243 35.31432831 -132.17492816 27.1930258 -131 19 C-125.96450342 16.55777403 -122.26192296 15.61912823 -116.57421875 15.55859375 C-115.52905846 15.53993759 -115.52905846 15.53993759 -114.46278381 15.52090454 C-112.97466871 15.49508627 -111.48643945 15.47525281 -109.99816895 15.46096802 C-106.06972504 15.42106927 -102.1424458 15.33073097 -98.21484375 15.2421875 C-97.03657516 15.21678642 -97.03657516 15.21678642 -95.83450317 15.19087219 C-70.74032736 14.60134817 -45.95240148 11.47499769 -21.5625 5.5625 C-20.74628174 5.36938232 -19.93006348 5.17626465 -19.08911133 4.97729492 C-14.05221281 3.72024999 -9.56583072 2.02441446 -4.92553711 -0.31274414 C-3 -1 -3 -1 0 0 Z " fill="#FDFDFD" transform="translate(190,37)"/>
<path d="M0 0 C1.19084572 2.73420548 2.19179606 5.36678558 3.125 8.1875 C3.38925781 8.94353516 3.65351562 9.69957031 3.92578125 10.47851562 C7.67103347 21.4386065 9.28331946 34.93822354 5 46 C-0.19013689 56.52545244 -10.14464438 63.94367696 -21 68 C-26.27578982 69.56753814 -31.62914436 70.80721692 -37 72 C-36.55056464 75.73314776 -36.0949573 79.44134611 -35.46484375 83.1484375 C-34.10071808 91.49486566 -33.726406 99.74019978 -33.625 108.1875 C-33.58620728 109.80760986 -33.58620728 109.80760986 -33.54663086 111.46044922 C-33.51934214 123.02558316 -36.54297581 132.96855221 -44.375 141.625 C-50.98002391 147.60097401 -56.20274463 149.52438472 -64.9921875 149.38671875 C-68.88222994 148.88657044 -70.78357151 147.88946202 -73.47265625 145.08203125 C-84.40312 130.18193616 -85.14577446 109.63201874 -82.69677734 91.79101562 C-82.18082683 89.15919463 -81.47995759 86.6254242 -80.65625 84.07421875 C-79.84917654 81.88588295 -79.84917654 81.88588295 -80 79 C-95.18 79 -110.36 79 -126 79 C-128 75 -128 75 -127.796875 72.984375 C-126.89469855 70.73777875 -125.73372154 69.16201229 -124.25 67.25 C-117.90398207 58.07503431 -114.89924055 45.39392717 -114.75 34.375 C-114.72421875 33.24835938 -114.6984375 32.12171875 -114.671875 30.9609375 C-115.10302815 25.75630308 -116.49640656 20.98589772 -118 16 C-116.53699463 15.970271 -116.53699463 15.970271 -115.04443359 15.93994141 C-83.88034839 15.28552866 -54.08202863 13.12081864 -23.625 6 C-22.59721436 5.76313477 -21.56942871 5.52626953 -20.51049805 5.28222656 C-14.94875117 3.93508748 -9.95552348 2.2816298 -4.85302734 -0.328125 C-3 -1 -3 -1 0 0 Z " fill="#FDFDFD" transform="translate(520,37)"/>
<path d="M0 0 C0.33 1.65 0.66 3.3 1 5 C-0.7015625 5.87011719 -0.7015625 5.87011719 -2.4375 6.7578125 C-13.85901199 12.41189935 -13.85901199 12.41189935 -24 20 C-24.66773438 20.54914062 -25.33546875 21.09828125 -26.0234375 21.6640625 C-29.71218217 25.32364713 -31.16729109 28.36596278 -31.2578125 33.53515625 C-31.2178714 36.13785923 -31.12314933 38.73473355 -31.02124023 41.33569336 C-30.68337578 52.47902108 -34.00207857 61.46006694 -41.15625 70.1328125 C-43 72 -43 72 -45.57373047 73.62158203 C-48.34445768 76.33766419 -48.6074715 77.87028987 -48.69473267 81.684021 C-48.68461151 82.42251282 -48.67449036 83.16100464 -48.6640625 83.921875 C-48.66884613 84.69952209 -48.67362976 85.47716919 -48.67855835 86.27838135 C-48.68195929 87.9292604 -48.67274291 89.58020662 -48.65185547 91.23095703 C-48.62552055 93.70117269 -48.65136051 96.16666097 -48.68359375 98.63671875 C-48.71875982 114.26803698 -45.07260549 128.03606371 -36 141 C-35.43539062 141.56074219 -34.87078125 142.12148437 -34.2890625 142.69921875 C-33 144 -33 144 -33 146 C-32.154375 146.2475 -31.30875 146.495 -30.4375 146.75 C-27.78378919 147.71498575 -25.76168854 148.64492042 -23.375 150.0625 C-18.28965044 152.98186734 -13.88023748 153.64553505 -8 153 C-3.81820722 151.19422584 -1.5959507 148.69326059 1 145 C2.30019465 141.52456973 2.30019465 141.52456973 3.1875 137.75 C3.35475586 137.0912085 3.52201172 136.43241699 3.69433594 135.75366211 C4.90229331 130.83563607 5.64599543 126.04456508 6 121 C7.9375 120.4375 7.9375 120.4375 10 120 C11 121 11 121 11.6875 124.625 C13.80824598 134.28445616 16.81163155 144.71652481 25.07421875 150.76953125 C25.70972656 151.17558594 26.34523438 151.58164063 27 152 C28.3921875 152.9590625 28.3921875 152.9590625 29.8125 153.9375 C35.58730847 155.86243616 42.1787216 156.26661609 47.8125 153.625 C57.72808569 146.7932089 60.02385217 132.47404331 62.09375 121.4921875 C63.24729903 114.32434173 63.30123374 107.24642765 63.25 100 C63.24756287 99.32457153 63.24512573 98.64914307 63.24261475 97.95324707 C63.18180058 83.53391069 62.35154896 69.23503198 59.3671875 55.09375 C59 53 59 53 59 49 C60.8984375 49.30078125 60.8984375 49.30078125 63 50 C74.32544279 72.21529162 71.50728905 111.75699161 65.1328125 135.1875 C64.71638687 138.1535309 64.71638687 138.1535309 66.80078125 140.73828125 C67.62964844 141.58777344 68.45851563 142.43726563 69.3125 143.3125 C70.13363281 144.17488281 70.95476562 145.03726563 71.80078125 145.92578125 C73.82046283 148.03037934 73.82046283 148.03037934 76 149 C75.1875 150.9375 75.1875 150.9375 74 153 C73.01 153.33 72.02 153.66 71 154 C70.731875 154.70125 70.46375 155.4025 70.1875 156.125 C67.5405588 162.53338396 63.14160118 166.40448138 56.9296875 169.2734375 C49.3283318 172.13548641 42.31721495 171.28666032 35 168 C34.04287109 167.25169922 34.04287109 167.25169922 33.06640625 166.48828125 C30.61922782 164.72575765 28.55134733 164.18855231 25.625 163.5 C21.37163145 162.42384651 17.80718093 161.16083242 14 159 C13.61521484 159.90685547 13.61521484 159.90685547 13.22265625 160.83203125 C11.12252506 164.55590604 7.81193422 166.24768719 4 168 C-1.95137188 169.61463307 -7.2563348 169.0718632 -13 167 C-13.61230469 166.78859375 -14.22460938 166.5771875 -14.85546875 166.359375 C-21.50487139 163.56251286 -26.42276652 158.27664052 -31.53295898 153.34130859 C-33.19356518 151.77976059 -33.19356518 151.77976059 -35.98046875 149.76171875 C-40.10146064 146.3795848 -42.5053628 141.78481752 -45.1875 137.25 C-46.21477183 135.52133191 -47.24958207 133.79711454 -48.29296875 132.078125 C-48.7418042 131.31918945 -49.19063965 130.56025391 -49.65307617 129.77832031 C-50.96549157 127.6974381 -50.96549157 127.6974381 -54 127 C-57.1886003 128.21021875 -59.0967859 130.21380435 -61 133 C-61.64091225 135.54362049 -62.12725352 137.91949444 -62.5 140.5 C-64.04042045 151.12791683 -67.94108423 161.33089945 -76.171875 168.671875 C-83.52306377 174.01248223 -90.97129728 175.94248183 -100 175 C-106.72531484 173.04829126 -112.29848429 168.02800986 -117 163 C-117 162.34 -117 161.68 -117 161 C-117.66 161 -118.32 161 -119 161 C-122.5512316 157.89267235 -124.38531942 155.38270443 -126 151 C-126.48855469 150.55785156 -126.97710937 150.11570313 -127.48046875 149.66015625 C-129.43352857 147.52635053 -129.68967657 145.89200924 -130.1875 143.0625 C-130.34605469 142.20785156 -130.50460938 141.35320312 -130.66796875 140.47265625 C-131 138 -131 138 -131 134 C-131.556875 133.7525 -132.11375 133.505 -132.6875 133.25 C-135 132 -135 132 -137.4375 129.8125 C-139.83630129 127.70944476 -139.83630129 127.70944476 -142.625 128.1875 C-143.800625 128.5896875 -143.800625 128.5896875 -145 129 C-150.72844829 130.90948276 -156.77562505 130.91185715 -162.3125 128.375 C-167.96550555 125.13819844 -171.80558236 120.12127025 -174 114 C-174.87271035 104.63199986 -174.87271035 104.63199986 -172.91796875 100.9765625 C-171.65742349 98.26236717 -172.12959881 96.82220992 -173 94 C-174.06664843 91.90174438 -174.06664843 91.90174438 -175.375 89.875 C-177.42637824 86.37007375 -178.57342942 83.20123775 -179.5 79.25 C-180.69839901 74.32554431 -182.10724582 72.17566789 -186 69 C-187.59112769 65.81774461 -187.33732786 63.54194252 -187 60 C-186.23751946 58.63744452 -185.41889629 57.30557245 -184.5625 56 C-181.342276 50.71738534 -181.39960768 45.6711589 -181.15625 39.60546875 C-180.68099548 28.63897059 -180.68099548 28.63897059 -176.5 24.5625 C-173.35903134 23.16028185 -171.27182093 22.70219554 -167.9375 22.25 C-164.23246823 21.66088691 -164.23246823 21.66088691 -161.4921875 19.27734375 C-160.70258953 17.87855264 -159.93823081 16.46522613 -159.19921875 15.0390625 C-156.52835956 10.49773189 -152.51751809 8.41386857 -147.5625 7.0625 C-140.35015318 6.9359676 -135.84726719 8.56824171 -130.4453125 13.3671875 C-128.88365324 15.1314404 -127.95618712 16.8555415 -127 19 C-116.58195557 19.59062929 -106.57380914 18.60839442 -96.25 17.1875 C-95.03159424 17.02217773 -93.81318848 16.85685547 -92.55786133 16.68652344 C-85.8244251 15.71789367 -79.27938899 14.45475038 -72.70385742 12.70751953 C-69.83746913 11.95747048 -66.95756483 11.31674169 -64.0625 10.6875 C-58.23468767 9.26701873 -53.13235004 6.84753311 -47.8125 4.109375 C-45 3 -45 3 -42.91796875 3.05859375 C-40.2178075 4.38392748 -38.42497526 6.17907457 -36.3125 8.3125 C-35.52488281 9.09238281 -34.73726562 9.87226562 -33.92578125 10.67578125 C-32.070414 12.91501759 -31.38274353 14.16510303 -31 17 C-30.29037109 16.45472656 -30.29037109 16.45472656 -29.56640625 15.8984375 C-8.65384615 0 -8.65384615 0 0 0 Z M-51.4375 12.1875 C-79.79194767 23.22291348 -110.906382 25.66839741 -141.0703125 26.2109375 C-141.81682068 26.22528839 -142.56332886 26.23963928 -143.3324585 26.25442505 C-146.37230861 26.31149044 -149.41194655 26.36692092 -152.45214844 26.40136719 C-154.72113562 26.4290494 -156.98919035 26.47479699 -159.2578125 26.5234375 C-159.93393585 26.52669037 -160.6100592 26.52994324 -161.30667114 26.53329468 C-166.24427587 26.66005009 -169.63697258 27.87322721 -174 30 C-176.91465512 50.3245147 -178.46968435 71.06063131 -169 90 C-153.49 89.67 -137.98 89.34 -122 89 C-122.99 92.3 -123.98 95.6 -125 99 C-125.69645179 103.98149107 -125.84598432 108.97598462 -126 114 C-126.02723145 114.69609375 -126.05446289 115.3921875 -126.08251953 116.109375 C-126.58905119 130.07563144 -125.82054816 143.47883956 -117 155 C-116.35611328 155.85271484 -116.35611328 155.85271484 -115.69921875 156.72265625 C-112.62871525 159.97431039 -109.49380883 160.40792538 -105.25 160.625 C-97.72161619 160.25230773 -92.19299629 158.07146356 -86.7421875 152.828125 C-78.27422561 143.01653816 -76.34066901 132.96529405 -76.53344727 120.26733398 C-76.56232284 118.20018253 -76.55402965 116.13562552 -76.54101562 114.06835938 C-76.55563777 106.08264578 -77.41400965 98.74333394 -79.35913086 90.98168945 C-79.95501949 88.20927503 -80.12333939 85.82241099 -80 83 C-79.34515625 82.91363281 -78.6903125 82.82726562 -78.015625 82.73828125 C-64.04737338 80.58780183 -50.54920649 74.51923541 -41.47265625 63.33984375 C-35.5498156 53.92928262 -34.11251294 41.66200273 -36.45996094 30.88916016 C-38.348243 23.68128971 -41.00555119 16.81434686 -44 10 C-46.81419603 10 -48.83421785 11.10970803 -51.4375 12.1875 Z " fill="#040404" transform="translate(233,26)"/>
<path d="M0 0 C7.12515192 2.24310338 11.81324739 6.43055754 15.35180664 13.02270508 C20.81514898 23.90929456 22.90072423 34.07165509 22.75 46.25 C22.73984863 47.43746826 22.72969727 48.62493652 22.71923828 49.84838867 C22.44727814 65.31111464 20.3805823 81.87368376 10.25 94.3125 C6.6422407 97.7634002 3.94097139 99.36343573 -1.0625 99.625 C-9.10081853 99.42285294 -16.433361 95.38892105 -21.9375 89.65234375 C-28.85468801 80.32855075 -29.84560318 70.42368771 -28.625 59.0625 C-25.49144348 40.03326587 -19.99633345 15.87025174 -5.625 2.0625 C-2.625 0.0625 -2.625 0.0625 0 0 Z " fill="#FCFCFC" transform="translate(546.625,91.9375)"/>
<path d="M0 0 C2.875 1.125 2.875 1.125 5 3 C5.90411953 6.36990005 5.32369841 8.35052152 3.78515625 11.4375 C1.59941913 15.17494362 -0.67037929 18.60276479 -3.4375 21.9375 C-4.2109375 22.9584375 -4.2109375 22.9584375 -5 24 C-3.86315195 27.41054415 -2.93570812 28.0677494 -0.1875 30.25 C4.3541005 34.11484495 7.48972344 37.71965067 8.4375 43.8125 C8.293125 44.534375 8.14875 45.25625 8 46 C4.17845705 48.5476953 1.41596375 48.56786221 -3 48 C-6.58339288 47.09700134 -10.10397776 46.06903141 -13.6328125 44.97265625 C-18.24923866 43.57871601 -18.24923866 43.57871601 -23 43 C-25.71070084 44.75894013 -25.71070084 44.75894013 -28.0625 47.3125 C-31.25281171 50.52297166 -33.66197626 52.60038806 -38 54 C-37.7834375 53.29617187 -37.566875 52.59234375 -37.34375 51.8671875 C-32.31803521 34.04451375 -36.01509193 18.26555348 -44 2 C-40.23181569 2.65184231 -37.56019646 4.37270283 -34.375 6.4375 C-33.41335938 7.05496094 -32.45171875 7.67242187 -31.4609375 8.30859375 C-29 10 -29 10 -27 12 C-24.93125966 12.6425235 -24.93125966 12.6425235 -23 13 C-23 12.34 -23 11.68 -23 11 C-20.8046875 9.16015625 -20.8046875 9.16015625 -17.875 7.0625 C-16.92367187 6.37285156 -15.97234375 5.68320312 -14.9921875 4.97265625 C-10.01924344 1.69414874 -6.07679033 -0.77576047 0 0 Z " fill="#F9F9F9" transform="translate(566,31)"/>
<path d="M0 0 C2.15797125 1.79830938 3.86932846 3.84830086 5.69921875 5.97265625 C6.62154297 7.03806641 6.62154297 7.03806641 7.5625 8.125 C8.14128906 8.80820313 8.72007812 9.49140625 9.31640625 10.1953125 C11.06766041 12.21123097 11.06766041 12.21123097 14 14 C15.03447266 13.20335938 15.03447266 13.20335938 16.08984375 12.390625 C31.12351779 1.08959157 31.12351779 1.08959157 40 2 C39.67 3.65 39.34 5.3 39 7 C38.46632813 7.14695312 37.93265625 7.29390625 37.3828125 7.4453125 C30.32121629 9.57112174 23.27688031 12.72311969 18 18 C18.38460737 20.89385431 19.4915965 23.11639534 20.9609375 25.609375 C21.54488281 26.61871094 21.54488281 26.61871094 22.140625 27.6484375 C22.9547145 29.03445064 23.76979688 30.41988115 24.5859375 31.8046875 C31.81133096 44.3065196 31.81133096 44.3065196 31 51 C30 52 30 52 27.4375 52.0625 C26.633125 52.041875 25.82875 52.02125 25 52 C24.72027344 51.28457031 24.44054687 50.56914062 24.15234375 49.83203125 C21.33570453 42.83118842 18.12499651 36.30026548 14.453125 29.71484375 C13 27 13 27 12 24 C11.34 24 10.68 24 10 24 C9.72929688 24.58910156 9.45859375 25.17820312 9.1796875 25.78515625 C8.01474061 27.97232475 6.76898785 29.59333747 5.125 31.4375 C3.24248934 33.56276751 1.51308121 35.65386237 -0.1875 37.9375 C-1.0846875 38.9584375 -1.0846875 38.9584375 -2 40 C-2.99 40 -3.98 40 -5 40 C-5.27988658 36.94277741 -5.22915792 35.37592198 -3.609375 32.71875 C-2.99578125 31.9865625 -2.3821875 31.254375 -1.75 30.5 C-0.79867187 29.33404297 -0.79867187 29.33404297 0.171875 28.14453125 C1.59490372 26.47520909 3.04268688 24.82697726 4.5 23.1875 C6.1747937 21.16680497 6.1747937 21.16680497 6.0625 19 C4.16587369 15.42987988 1.08852785 12.98035117 -1.88671875 10.30078125 C-6.91012648 5.6034365 -6.91012648 5.6034365 -7.4375 2.0625 C-7.293125 1.381875 -7.14875 0.70125 -7 0 C-4.23382717 -1.38308641 -2.92591209 -0.90563946 0 0 Z " fill="#0B0B0B" transform="translate(947,96)"/>
<path d="M0 0 C2.5625 0.1875 2.5625 0.1875 4.5625 2.1875 C4.5625 3.1775 4.5625 4.1675 4.5625 5.1875 C5.2225 5.1875 5.8825 5.1875 6.5625 5.1875 C8.18359375 6.8671875 8.18359375 6.8671875 10 9.0625 C12.14650884 11.64943722 13.73026562 13.29934374 16.5625 15.1875 C17.59697266 14.39085938 17.59697266 14.39085938 18.65234375 13.578125 C33.68601779 2.27709157 33.68601779 2.27709157 42.5625 3.1875 C42.5625 4.5075 42.5625 5.8275 42.5625 7.1875 C41.81226563 7.46722656 41.06203125 7.74695313 40.2890625 8.03515625 C32.94833149 10.91042999 26.81185044 14.3898792 20.5625 19.1875 C22.46993857 24.49739655 25.35394223 29.19391456 28.19726562 34.04101562 C34.96342292 45.80579827 34.96342292 45.80579827 34.19702148 50.35864258 C33.5625 52.1875 33.5625 52.1875 32.5625 53.1875 C30.89632885 53.22813832 29.22861905 53.230221 27.5625 53.1875 C27.34634033 52.65382812 27.13018066 52.12015625 26.9074707 51.5703125 C25.90428779 49.10618618 24.88972755 46.64689353 23.875 44.1875 C23.53533203 43.34832031 23.19566406 42.50914062 22.84570312 41.64453125 C20.55782088 36.12795537 17.89972543 31.14101833 14.5625 26.1875 C8.9375207 30.57498386 5.25629408 35.09882843 1.5625 41.1875 C0.2425 40.8575 -1.0775 40.5275 -2.4375 40.1875 C-1.95199289 35.49426456 -0.05483214 33.1392789 3 29.625 C6.79621668 25.2392825 6.79621668 25.2392825 9.5625 20.1875 C8.17169892 18.59974451 6.77461596 17.01749061 5.375 15.4375 C4.59769531 14.55578125 3.82039062 13.6740625 3.01953125 12.765625 C0.67794754 10.30863732 -1.73908265 8.23887234 -4.4375 6.1875 C-3.3735 0.2595 -3.3735 0.2595 0 0 Z " fill="#0C0C0C" transform="translate(705.4375,94.8125)"/>
<path d="M0 0 C0.99 0 1.98 0 3 0 C2.48373031 3.78597774 1.69330279 6.61339441 0 10 C-1.52387899 16.40029174 -1.84193232 23.10585764 0 29.4375 C2.80204859 33.02762476 5.65951409 34.16869815 10 35 C23.29947549 36.58117938 34.07143204 32.19341513 44.5625 24.203125 C47.70736785 21.36064829 50.07420054 18.24102953 52.3671875 14.6875 C54 13 54 13 56.6953125 12.75 C57.45585938 12.8325 58.21640625 12.915 59 13 C58.24163557 14.65161581 57.46787924 16.29617138 56.6875 17.9375 C56.25824219 18.85402344 55.82898438 19.77054688 55.38671875 20.71484375 C54 23 54 23 51 24 C51 24.66 51 25.32 51 26 C50.01 26.495 50.01 26.495 49 27 C48.31068656 29.34907875 48.31068656 29.34907875 47.875 32.0625 C47.70742188 32.98160156 47.53984375 33.90070313 47.3671875 34.84765625 C47.18542969 35.91306641 47.18542969 35.91306641 47 37 C47.92619141 37.42925781 47.92619141 37.42925781 48.87109375 37.8671875 C53.3592931 40.25540367 55.8055449 44.64338775 57.46875 49.34375 C58.78245227 55.91226137 59.13006377 64.60980869 57 71 C56.01 70.67 55.02 70.34 54 70 C52.76451226 66.92853607 53.01345411 64.07233245 53.1875 60.8125 C53.25319121 53.78354028 50.89348613 49.04310271 47.25 43.1875 C44.1997243 40.22195418 41.05826632 38.30583907 37 37 C33.63477388 37.1904845 31.18419449 37.93860184 28 39 C24.46418481 39.33286963 20.92450141 39.37004552 17.375 39.4375 C15.93447266 39.50614258 15.93447266 39.50614258 14.46484375 39.57617188 C7.16253052 39.6901157 2.44652602 37.92974077 -3 33 C-6.83066344 27.19596448 -6.77834623 20.73729797 -6 14 C-4.64026389 8.91216114 -2.92439906 4.3865986 0 0 Z " fill="#0D0D0D" transform="translate(618,85)"/>
<path d="M0 0 C1.32 0.33 2.64 0.66 4 1 C4 5.18869438 1.64422521 7.07881345 -1 10.0625 C-4.5723279 13.55997875 -4.5723279 13.55997875 -6 18 C-4.0481331 19.52034596 -4.0481331 19.52034596 -1.625 21 C0.84952162 22.57112484 2.92383041 23.92383041 5 26 C4.625 28.625 4.625 28.625 4 31 C-0.9593876 30.63711798 -3.63965273 29.09931629 -7.38671875 26.05859375 C-9.09644101 24.72569389 -9.09644101 24.72569389 -12 25 C-16.66568409 30.84765739 -19.47682714 38.02416916 -22 45 C-23.32 44.67 -24.64 44.34 -26 44 C-25.44936961 39.07449798 -23.83801525 35.15498022 -21.5625 30.8125 C-21.24990234 30.19697266 -20.93730469 29.58144531 -20.61523438 28.94726562 C-19.19938444 26.18441257 -17.72406235 23.58609352 -16 21 C-19.56396535 18.69390477 -22.96373523 17.28426606 -27 16 C-28 15 -28 15 -28.0625 12.4375 C-28.041875 11.633125 -28.02125 10.82875 -28 10 C-20.95188357 7.96387747 -16.28987948 10.71288396 -10 14 C-9.63261719 13.17242187 -9.63261719 13.17242187 -9.2578125 12.328125 C-7.74261886 9.52360509 -5.88915874 7.21896877 -3.875 4.75 C-3.15054688 3.85796875 -2.42609375 2.9659375 -1.6796875 2.046875 C-1.12539062 1.37140625 -0.57109375 0.6959375 0 0 Z " fill="#0D0D0D" transform="translate(249,82)"/>
<path d="M0 0 C6.3436915 -0.6748608 10.93914061 1.08324528 16 5 C17.26171875 7.171875 17.26171875 7.171875 18 9 C21.54518884 7.60240095 21.54518884 7.60240095 25 6 C26.99960012 5.960008 29.00047242 5.95653201 31 6 C29.5361389 10.39158329 27.02168662 10.87947433 23 13 C24.11049238 16.05385405 25.42521639 18.74538613 27.125 21.5 C28.91384721 24.83918146 29.44511978 26.32776178 29 30 C27.68 30.33 26.36 30.66 25 31 C24.20602761 29.75146327 23.41492783 28.50109957 22.625 27.25 C22.18414063 26.55390625 21.74328125 25.8578125 21.2890625 25.140625 C20.08119094 23.13482617 19.01612263 21.10821704 18 19 C14.98042366 20.00652545 13.17869078 20.81589435 10.9375 23.125 C9 25 9 25 5 25 C5.53675903 21.14896699 7.11600923 19.68202413 10.0625 17.25 C11.16271484 16.32960938 11.16271484 16.32960938 12.28515625 15.390625 C12.85105469 14.93171875 13.41695312 14.4728125 14 14 C10.59485082 8.42793771 5.90307063 7.01650695 0 5 C0 3.35 0 1.7 0 0 Z " fill="#0F0F0F" transform="translate(841,84)"/>
<path d="M0 0 C1.32 0.33 2.64 0.66 4 1 C3.79503906 1.66386719 3.59007812 2.32773438 3.37890625 3.01171875 C3.10949219 3.89472656 2.84007812 4.77773437 2.5625 5.6875 C2.29566406 6.55761719 2.02882813 7.42773438 1.75390625 8.32421875 C0.53961234 12.63401837 -0.13885785 16.57948617 -0.125 21.0625 C-0.12757813 21.89910156 -0.13015625 22.73570313 -0.1328125 23.59765625 C-0.08419489 25.99228384 -0.08419489 25.99228384 0.59765625 28.19921875 C0.73042969 28.79347656 0.86320312 29.38773438 1 30 C-0.4375 31.75 -0.4375 31.75 -2 33 C-6.0143711 27.14570881 -5.62662559 20.88463645 -5 14 C-4.28110501 10.85253025 -3.2639861 7.965743 -2 5 C-1.4121875 3.4840625 -1.4121875 3.4840625 -0.8125 1.9375 C-0.544375 1.298125 -0.27625 0.65875 0 0 Z " fill="#0C0C0C" transform="translate(340,85)"/>
<path d="M0 0 C2.7194239 1.81294927 4.74259377 3.66475218 7 6 C4 8 4 8 0.8125 7.625 C-0.115625 7.41875 -1.04375 7.2125 -2 7 C-2.33 8.65 -2.66 10.3 -3 12 C-3.66 12 -4.32 12 -5 12 C-5.33 12.99 -5.66 13.98 -6 15 C-6.66 14.67 -7.32 14.34 -8 14 C-7.34 11.69 -6.68 9.38 -6 7 C-6.99 6.67 -7.98 6.34 -9 6 C-8.34 6 -7.68 6 -7 6 C-7 5.34 -7 4.68 -7 4 C-3.04 4.99 -3.04 4.99 1 6 C0.01 4.68 -0.98 3.36 -2 2 C-1.34 1.34 -0.68 0.68 0 0 Z " fill="#101011" transform="translate(1035,168)"/>
<path d="M0 0 C1.65 0.99 3.3 1.98 5 3 C4.67 4.98 4.34 6.96 4 9 C1.6875 9.6875 1.6875 9.6875 -1 10 C-2.875 8.875 -2.875 8.875 -4 7 C-3.875 4.4375 -3.875 4.4375 -3 2 C-2.01 1.34 -1.02 0.68 0 0 Z " fill="#020202" transform="translate(1055,163)"/>
<path d="M0 0 C-0.28482368 1.41805831 -0.57818144 2.83440379 -0.875 4.25 C-1.03742188 5.03890625 -1.19984375 5.8278125 -1.3671875 6.640625 C-1.99150075 8.96831144 -2.84838542 10.89031952 -4 13 C-5.32 12.67 -6.64 12.34 -8 12 C-7.45119974 8.06693147 -6.74199701 4.58646443 -5 1 C-3 0 -3 0 0 0 Z " fill="#151515" transform="translate(231,114)"/>
<path d="M0 0 C0.598125 0.226875 1.19625 0.45375 1.8125 0.6875 C2.4375 3.5625 2.4375 3.5625 2.8125 6.6875 C2.1525 7.3475 1.4925 8.0075 0.8125 8.6875 C-1.8125 8.3125 -1.8125 8.3125 -4.1875 7.6875 C-4.875 5.375 -4.875 5.375 -5.1875 2.6875 C-3.60587179 0.1901923 -2.97595617 -0.4251366 0 0 Z " fill="#020202" transform="translate(825.1875,159.3125)"/>
<path d="M0 0 C2.52349243 3.12432397 4.27256146 6.38060496 6 10 C4.33388095 10.042721 2.66617115 10.04063832 1 10 C0 9 0 9 -0.09765625 6.93359375 C-0.08605469 6.10988281 -0.07445312 5.28617187 -0.0625 4.4375 C-0.05347656 3.61121094 -0.04445313 2.78492187 -0.03515625 1.93359375 C-0.02355469 1.29550781 -0.01195312 0.65742187 0 0 Z " fill="#7C7C7C" transform="translate(803,115)"/>
<path d="M0 0 C1.98 0 3.96 0 6 0 C6 4 6 4 5 6 C6.32 6.33 7.64 6.66 9 7 C6.69 7 4.38 7 2 7 C1.7834375 5.824375 1.7834375 5.824375 1.5625 4.625 C1.12201075 2.03578982 1.12201075 2.03578982 0 0 Z " fill="#0C0C0C" transform="translate(1044,175)"/>
<path d="M0 0 C2.31 0 4.62 0 7 0 C7 0.66 7 1.32 7 2 C6.01 2 5.02 2 4 2 C3.67 2.99 3.34 3.98 3 5 C2.01 5 1.02 5 0 5 C0 3.35 0 1.7 0 0 Z " fill="#070707" transform="translate(841,84)"/>
<path d="M0 0 C0.99 0.33 1.98 0.66 3 1 C2.67 2.65 2.34 4.3 2 6 C0.68 6.33 -0.64 6.66 -2 7 C-1.125 2.25 -1.125 2.25 0 0 Z " fill="#0F0F0F" transform="translate(1038,152)"/>
<path d="M0 0 C1.98 0.495 1.98 0.495 4 1 C3.67 2.65 3.34 4.3 3 6 C1.68 5.67 0.36 5.34 -1 5 C-0.67 3.35 -0.34 1.7 0 0 Z " fill="#151515" transform="translate(340,85)"/>
<path d="M0 0 C0.66 0.66 1.32 1.32 2 2 C1.01 2.66 0.02 3.32 -1 4 C-0.67 4.66 -0.34 5.32 0 6 C-2.31 6.66 -4.62 7.32 -7 8 C-6.02133662 6.85373678 -5.04205413 5.70800212 -4.0625 4.5625 C-3.51722656 3.92441406 -2.97195313 3.28632812 -2.41015625 2.62890625 C-1.63204305 1.73008851 -0.84063472 0.84063472 0 0 Z " fill="#DBDBDB" transform="translate(719,120)"/>
<path d="M0 0 C0.99 0 1.98 0 3 0 C2.67 1.98 2.34 3.96 2 6 C0.68 5.67 -0.64 5.34 -2 5 C-1.34 3.35 -0.68 1.7 0 0 Z " fill="#171717" transform="translate(618,85)"/>
<path d="M0 0 C-0.33 1.32 -0.66 2.64 -1 4 C-2.65 3.67 -4.3 3.34 -6 3 C-6 2.34 -6 1.68 -6 1 C-3 0 -3 0 0 0 Z " fill="#020202" transform="translate(254,109)"/>
<path d="M0 0 C2.0625 2.1875 2.0625 2.1875 4 5 C3.75 7.8125 3.75 7.8125 3 10 C-0.00617269 6.99382731 0.40414684 4.17618402 0 0 Z " fill="#1B0000" transform="translate(54,103)"/>
<path d="M0 0 C0.66 0 1.32 0 2 0 C1.67 1.32 1.34 2.64 1 4 C0.34 3.67 -0.32 3.34 -1 3 C-0.67 2.01 -0.34 1.02 0 0 Z " fill="#010101" transform="translate(1042,165)"/>
<path d="M0 0 C0.99 0 1.98 0 3 0 C2.67 0.99 2.34 1.98 2 3 C1.34 2.67 0.68 2.34 0 2 C0 1.34 0 0.68 0 0 Z " fill="#020202" transform="translate(1066,90)"/>
</svg>
